<svg xmlns="http://www.w3.org/2000/svg" viewBox="0 0 30 30"><path d="M25.028,10.972c-3.105-3.105-8.768-2.476-12.65,1.406s-4.51,9.545-1.406,12.65s8.768,2.476,12.65-1.406S28.133,14.077,25.028,10.972z M14.777,22.24c-0.013,0.548-0.468,0.983-1.017,0.97c-0.266-0.007-0.505-0.117-0.679-0.291c-0.185-0.185-0.298-0.443-0.291-0.726c0.032-1.381,1.116-4.239,4.983-5.164c3.32-0.795,3.446-3.17,3.45-3.27c0.02-0.544,0.474-0.976,1.018-0.963c0.545,0.014,0.977,0.456,0.969,1c-0.017,1.38-1.08,4.235-4.975,5.166C14.874,19.767,14.778,22.215,14.777,22.24z"/><path d="M7.068,18.773c0.305-2.742,1.614-5.419,3.683-7.579c0.726-2.159-0.417-3.442-0.475-3.505C9.903,7.289,9.918,6.658,10.315,6.28c0.397-0.377,1.02-0.371,1.401,0.021c0.522,0.536,1.129,1.595,1.252,2.992c1.423-0.981,2.986-1.671,4.584-2.023C16.104,4.691,13.712,3,11,3C6.582,3,3,7.477,3,13c0,3.784,1.682,7.077,4.163,8.775C6.992,20.821,6.952,19.816,7.068,18.773z"/></svg>