<svg xmlns="http://www.w3.org/2000/svg" viewBox="0 0 30 30">
    <path 
        d="M22.3765+1.43004C16.3833-1.83291+8.22288+1.59651+4.14821+9.09209C0.0735414+16.5877+1.63115+25.3067+7.62287+28.5701C13.6146+31.8335+21.7765+28.4037+25.8512+20.9081C29.9258+13.4125+28.3697+4.693+22.3765+1.43004ZM12.0645+22.7394C12.2864+23.5622+11.8+24.4109+10.9763+24.6331C10.5769+24.7397+10.1724+24.6808+9.83655+24.498C9.47946+24.3036+9.19751+23.9686+9.08335+23.5436C8.523+21.4707+8.87976+16.7328+14.234+13.6523C18.8304+11.0063+17.9725+7.41009+17.9345+7.25925C17.7247+6.43942+18.211+5.59561+19.0272+5.37563C19.8454+5.15671+20.6836+5.6256+20.9112+6.44015C21.4934+8.50502+21.1666+13.2291+15.7734+16.3309C11.1202+19.0099+12.055+22.7017+12.0645+22.7394Z" 
        style="fill:#714B33"
    />
</svg>
