<svg style="fill-rule:nonzero;clip-rule:evenodd;stroke-linecap:round;stroke-linejoin:round;" xmlns="http://www.w3.org/2000/svg" viewBox="0 0 1024 1024">
    <path stroke="currentColor" stroke-width="75" d="M172.963+638.118L50.5244+821.714L196.634+874.48L371.33+613.126L172.963+638.118Z" fill="none" stroke-linecap="butt" opacity="1" stroke-linejoin="round"/>
    <path stroke="currentColor" stroke-width="75" d="M748.929+409.299L977.128+663.966L862.96+754.292C862.96+754.292+749.41+747.955+720.902+661.707C692.394+575.458+748.929+409.299+748.929+409.299Z" fill="none" stroke-linecap="butt" opacity="1" stroke-linejoin="round"/>
    <path stroke="currentColor" stroke-width="75" d="M56.131+266.242L199.735+49.1555L341.975+145.774C341.975+145.774+305.53+251.234+234.069+281.351C162.608+311.468+56.131+266.242+56.131+266.242Z" fill="none" stroke-linecap="butt" opacity="1" stroke-linejoin="round"/>
    <path stroke="currentColor" stroke-width="75" d="M567.465+193.601L947.045+374.192C947.045+374.192+858.412+107.679+763.517+62.5315C668.621+17.3837+567.465+193.601+567.465+193.601Z" fill="none" stroke-linecap="butt" opacity="1" stroke-linejoin="round"/>
    <path stroke="currentColor" stroke-width="75" d="M316.092+449.991L496.174+294.343L602.915+486.085L514.387+572.488L316.092+449.991Z" fill="none" stroke-linecap="butt" opacity="1" stroke-linejoin="round"/>
    <path stroke="currentColor" stroke-width="75" d="M367.126+913.997L543.282+792.698L770.143+847.877C770.143+847.877+754.048+909.662+598.196+977.527C513.738+1014.3+367.126+913.997+367.126+913.997Z" fill="none" stroke-linecap="butt" opacity="1" stroke-linejoin="round"/>
</svg>
